<?xml version="1.0" encoding="utf-8"?>
<!-- Generator: Adobe Illustrator 22.0.0, SVG Export Plug-In . SVG Version: 6.00 Build 0)  -->
<svg version="1.1" id="lemonade_stand" xmlns="http://www.w3.org/2000/svg" xmlns:xlink="http://www.w3.org/1999/xlink" x="0px"
	 y="0px" viewBox="0 0 348 359.3" style="enable-background:new 0 0 348 359.3;" xml:space="preserve">
<style type="text/css">
	.st0{fill:#CDE0DD;}
	.st1{fill:#4D4D4D;}
	.st2{fill:#897051;}
	.st3{opacity:0.4;}
	.st4{fill:#897151;}
	.st5{fill:#7A6448;}
	.st6{fill:#F9CC3D;}
	.st7{fill:#FFE655;}
	.st8{fill:#F2F2F2;}
	.st9{fill:#9E855C;}
	.st10{fill:#7A7A7A;}
	.st11{fill:#A1A1A1;}
	.st12{fill:#FBD13B;}
	.st13{fill:#FFFFFF;}
	.st14{opacity:0.6;}
	.st15{fill:#A3A3A3;}
	.st16{opacity:0.3;}
	.st17{fill:#8C8C8C;}
	.st18{fill:#F47171;}
	.st19{fill:#828282;}
	.st20{fill:#9C9C9C;}
	.st21{fill:#6B6B6B;}
	.st22{fill:#83C4BC;}
	.st23{fill:#5BAA9F;}
	.st24{fill:#FBB03B;}
	.st25{fill:#D3984A;}
	.st26{fill:#E0AB58;}
	.st27{fill:#EAB85E;}
</style>
<path class="st0" d="M319.6,352H23c-7.9,0-14.3-6.4-14.3-14.3l0,0c0-7.9,6.4-14.3,14.3-14.3h296.5c7.9,0,14.3,6.4,14.3,14.3l0,0
	C333.9,345.6,327.5,352,319.6,352z"/>
<g>
	<g>
		<g>
			<g>
				<rect x="121.8" y="49.4" class="st1" width="2.8" height="25.1"/>
			</g>
			<g>
				<rect x="212.7" y="49.1" class="st1" width="2.8" height="25.1"/>
			</g>
			<g>
				<path class="st1" d="M126.9,74.5c0,2.1-1.7,3.7-3.7,3.7s-3.7-1.7-3.7-3.7c0-2.1,1.7-3.7,3.7-3.7S126.9,72.4,126.9,74.5z"/>
				<path class="st2" d="M123.2,79.6c-2.8,0-5.1-2.3-5.1-5.1c0-2.8,2.3-5.1,5.1-5.1c2.8,0,5.1,2.3,5.1,5.1
					C128.3,77.3,126,79.6,123.2,79.6z M123.2,72.2c-1.3,0-2.3,1.1-2.3,2.3c0,1.3,1.1,2.3,2.3,2.3c1.3,0,2.3-1.1,2.3-2.3
					C125.5,73.2,124.5,72.2,123.2,72.2z"/>
			</g>
			<g>
				<path class="st1" d="M217.8,74.2c0,2.1-1.7,3.7-3.7,3.7c-2.1,0-3.7-1.7-3.7-3.7c0-2.1,1.7-3.7,3.7-3.7
					C216.1,70.5,217.8,72.1,217.8,74.2z"/>
				<path class="st2" d="M214.1,79.3c-2.8,0-5.1-2.3-5.1-5.1c0-2.8,2.3-5.1,5.1-5.1s5.1,2.3,5.1,5.1C219.2,77,216.9,79.3,214.1,79.3
					z M214.1,71.8c-1.3,0-2.3,1.1-2.3,2.3c0,1.3,1.1,2.3,2.3,2.3c1.3,0,2.3-1.1,2.3-2.3C216.4,72.9,215.4,71.8,214.1,71.8z"/>
			</g>
		</g>
		<rect x="78.3" y="49.4" class="st3" width="12.5" height="24.8"/>
		<rect x="247.1" y="49.4" class="st3" width="12.5" height="24.8"/>
		<rect x="78.3" y="49.4" class="st4" width="12.5" height="145.3"/>
		<rect x="247.1" y="49.4" class="st4" width="12.5" height="145.3"/>
		<rect x="78.3" y="43.2" class="st3" width="12.5" height="24.8"/>
		<rect x="247.1" y="43.2" class="st3" width="12.5" height="24.8"/>
		<rect x="72.1" y="210.5" class="st4" width="21.5" height="122.6"/>
		<rect x="93.6" y="210.5" class="st5" width="21.5" height="122.6"/>
		<rect x="115.2" y="210.5" class="st4" width="21.5" height="122.6"/>
		<rect x="136.7" y="210.5" class="st5" width="21.5" height="122.6"/>
		<rect x="158.3" y="210.5" class="st4" width="21.5" height="122.6"/>
		<rect x="179.8" y="210.5" class="st5" width="21.5" height="122.6"/>
		<rect x="201.4" y="210.5" class="st4" width="21.5" height="122.6"/>
		<rect x="222.9" y="210.6" class="st5" width="21.5" height="122.6"/>
		<rect x="244.5" y="210.6" class="st4" width="21.5" height="122.6"/>
		<g>
			<path class="st6" d="M74.1,6h21.1L83.5,52.9c-1.3,5.2-5.9,8.8-11.3,8.8l0,0c-7.9,0-13.5-7.7-11.1-15.2L74.1,6z"/>
			<path class="st7" d="M95.2,6h21.1L108,52.1c-1,5.5-5.8,9.6-11.5,9.6h-0.4c-7.6,0-13.1-7.1-11.3-14.5L95.2,6z"/>
			<path class="st6" d="M116.3,6h21.1l-4.9,45.3c-0.6,5.9-5.6,10.4-11.6,10.4h-0.7c-7.2,0-12.7-6.5-11.5-13.7L116.3,6z"/>
			<path class="st7" d="M137.3,6h21.1l-1.6,44.5c-0.2,6.3-5.4,11.2-11.6,11.2h-0.9c-6.9,0-12.3-6-11.6-12.9L137.3,6z"/>
			<path class="st6" d="M158.4,6h21.1l1.6,43.7c0.2,6.6-5,12.1-11.6,12.1h-0.9c-6.6,0-11.9-5.5-11.6-12.1L158.4,6z"/>
			<path class="st7" d="M179.5,6h21.1l4.6,42.8c0.7,6.9-4.7,12.9-11.6,12.9h-0.9c-6.3,0-11.4-5-11.6-11.2L179.5,6z"/>
			<path class="st6" d="M200.5,6h21.1l7.5,42c1.3,7.1-4.2,13.7-11.5,13.7H217c-5.9,0-10.9-4.5-11.6-10.4L200.5,6z"/>
			<path class="st7" d="M221.6,6h21.1L253,47.3c1.8,7.3-3.7,14.5-11.3,14.5h-0.4c-5.6,0-10.5-4-11.5-9.6L221.6,6z"/>
			<path class="st6" d="M242.7,6h21.1l13,40.5c2.4,7.5-3.2,15.2-11.1,15.2h0c-5.3,0-10-3.6-11.3-8.8L242.7,6z"/>
		</g>
		<g>
			<rect x="99.8" y="76.9" class="st1" width="137.7" height="35.8"/>
			<path class="st2" d="M239.5,114.8H97.7V74.9h141.9V114.8z M101.8,110.7h133.6V79H101.8V110.7z"/>
		</g>
		<g>
			<path class="st8" d="M123.1,101.3c-0.2,0.6-0.4,1-0.7,1.3c-0.3,0.3-1,0.5-2.1,0.7c-1.1,0.2-2.3,0.3-3.5,0.3c-1.9,0-2.9-0.7-2.9-2
				c0-0.4,0.1-1.1,0.3-2.1l1.8-8.9c0.1-0.5,0.2-0.9,0.2-1.1c0-0.2-0.1-0.4-0.2-0.6c0.8-0.3,1.4-0.5,1.7-0.5c0.4,0,0.6,0.2,0.6,0.6
				c0,0.1-0.1,0.6-0.3,1.6l-1.6,8c-0.2,1.1-0.3,1.9-0.3,2.4c0,0.8,0.8,1.1,2.5,1.1C119.9,102.3,121.5,102,123.1,101.3z"/>
			<path class="st8" d="M128.2,96.6l-0.5,2.3c-0.2,1-0.3,1.7-0.3,2.1c0,0.8,0.8,1.2,2.3,1.2c1.5,0,2.9-0.3,4.1-0.8
				c-0.3,0.9-0.7,1.5-1.4,1.7c-0.4,0.1-1,0.3-2,0.4c-0.9,0.1-1.7,0.2-2.2,0.2c-2,0-3-0.7-3-2c0-0.4,0.1-1,0.3-2l0.6-3.1h-0.1
				c-0.6,0-1.2,0.1-1.8,0.4c0.3-0.7,0.6-1.1,0.8-1.3c0.2-0.2,0.6-0.3,1-0.3h0.3l0.9-4.5h-0.3c-1.1,0-2.2,0.4-3.1,1.1
				c0.3-1,0.7-1.6,1.2-1.9c0.4-0.2,1.7-0.3,3.8-0.3h2.7c1.7,0,3.1-0.2,4.2-0.5c-0.5,0.8-0.9,1.2-1.3,1.4c-0.4,0.2-1.2,0.2-2.4,0.2
				h-2.9l-0.9,4.5h1.9c1.3,0,2.4-0.2,3.1-0.5c-0.4,0.8-0.8,1.2-1.1,1.4c-0.3,0.2-1.1,0.2-2.3,0.2H128.2z"/>
			<path class="st8" d="M139.4,94.5l-1.2,6c-0.2,0.8-0.2,1.4-0.2,1.8c0,0.5,0.2,0.8,0.6,1.1c-0.7,0.2-1.2,0.3-1.5,0.3
				c-0.6,0-0.9-0.2-0.9-0.7c0-0.6,0.2-1.5,0.5-2.9l2-7.7l-0.4-1.1c-0.4-1.3-0.8-2.1-1.2-2.3c0.6-0.4,1.1-0.6,1.5-0.6
				c0.3,0,0.6,0.3,0.9,0.8c0.2,0.5,0.7,1.9,1.3,4c0.1,0.4,0.2,0.8,0.3,1l0.2,0.5c0.9,2.7,1.7,4,2.4,4c0.7,0,1.8-1.1,3.1-3.3
				c1.3-2.2,2.1-4,2.2-5.4c0.7-0.2,1.2-0.3,1.5-0.3c0.6,0,0.9,0.3,0.9,1c0,0.2-0.1,0.8-0.2,1.8c-0.1,0.9-0.2,1.6-0.3,2.2l-0.6,5.9
				c0,0.4-0.1,0.8-0.1,1.2c0,1.2,0.2,2,0.7,2.3c-0.6,0.4-1.2,0.7-1.6,0.7c-0.7,0-1.1-0.7-1.1-2.2c0-0.6,0-1.3,0.1-2.2l0.8-7.5
				c-0.7,2.2-1.6,4-2.8,5.5c-1.1,1.5-2.2,2.3-3.1,2.3c-0.7,0-1.4-0.5-2.1-1.6C140.5,97.8,139.9,96.4,139.4,94.5z"/>
			<path class="st8" d="M159.6,91.4c0.9-1.3,2.2-1.9,3.7-1.9c1.3,0,2.4,0.5,3.2,1.4c0.9,1,1.3,2.2,1.3,3.6c0,2.3-0.9,4.4-2.8,6.2
				c-1.8,1.9-3.9,2.8-6.1,2.8c-1.6,0-2.9-0.5-4-1.6c-1-1.1-1.6-2.4-1.6-4c0-1.8,0.6-3.3,1.8-4.6C156.5,92.2,157.9,91.5,159.6,91.4z
				 M158.9,92.4c-1.1,0.3-1.9,0.8-2.6,1.7c-0.6,0.9-0.9,2-0.9,3.3c0,1.5,0.4,2.7,1.3,3.6c0.8,0.9,1.9,1.4,3.2,1.4
				c1.6,0,3-0.7,4.2-2.2c1.2-1.5,1.8-3.2,1.8-5.2c0-1.1-0.3-2.1-0.9-2.9c-0.6-0.8-1.3-1.2-2.2-1.2c-0.9,0-1.7,0.4-2.3,1.1
				c-0.7,0.7-1,1.6-1,2.6c0,0.7,0.2,1.3,0.5,1.9c-0.7-0.1-1.1-0.3-1.3-0.5c-0.2-0.2-0.3-0.7-0.3-1.3
				C158.4,94.1,158.6,93.3,158.9,92.4z"/>
			<path class="st8" d="M173,93.3l-1.2,5.8c-0.2,1.1-0.3,1.9-0.3,2.5c0,0.8,0.2,1.4,0.7,1.8c-0.6,0.2-1.1,0.3-1.5,0.3
				c-0.7,0-1-0.3-1-0.9c0-0.6,0.4-2.4,1.1-5.5l1.4-5.8l-0.3-0.7c-0.4-1-0.8-1.5-1.3-1.7c0.9-0.4,1.5-0.6,1.8-0.6
				c0.4,0,0.7,0.2,0.9,0.6c0.2,0.4,1.1,2.4,2.7,6.2c1.8,4.2,2.9,6.3,3.5,6.3c0.4,0,0.8-0.9,1.2-2.7c0.4-1.8,0.6-3.6,0.6-5.5
				c0-1.5-0.4-2.5-1.1-3c0.6-0.4,1.1-0.6,1.6-0.6c0.7,0,1.1,0.6,1.1,1.8c0,0.9-0.2,2.4-0.5,4.3c-0.3,1.9-0.7,3.5-1,4.9
				c-0.6,2.1-1.3,3.2-2.1,3.2c-0.7,0-1.4-0.6-2.1-1.7c-0.7-1.2-1.7-3.2-3-6.1c-0.4-0.9-0.7-1.6-0.8-1.9L173,93.3z"/>
			<path class="st8" d="M187.4,98.9l-0.2,0.3c-0.8,1.4-1.1,2.5-1.1,3.3c0,0.2,0.1,0.5,0.3,0.7c-0.1,0-0.5,0.2-1,0.4
				c-0.2,0.1-0.5,0.1-0.7,0.1c-0.4,0-0.6-0.2-0.6-0.6c0-0.8,0.5-2.1,1.6-3.8l0.3-0.5h-0.5c-1,0-1.8,0.2-2.3,0.5
				c0.3-1,1.1-1.5,2.3-1.5l1.1,0l0.2-0.4c1-1.4,2.4-3.4,4.4-5.8c0.7-0.8,1.2-1.3,1.5-1.5c0.3-0.2,1-0.4,1.9-0.5
				c-0.2,1.1-0.3,2.1-0.3,3c0,2.5,0.3,5,0.9,7.6c0.3,1.4,0.8,2.3,1.4,2.7c-0.6,0.6-1.1,0.8-1.5,0.8c-1,0-1.7-1.6-2.2-4.9
				c-1,0.1-2,0.2-3,0.2L187.4,98.9z M188.1,97.8l1.8,0c1.3,0,2.2,0,2.9-0.1c-0.3-2.1-0.4-3.9-0.4-5.3l0-0.7
				c-0.2,0.3-0.6,0.8-1.3,1.7c-1.3,1.5-2.2,2.9-2.8,4L188.1,97.8z"/>
			<path class="st8" d="M198.4,94.7c-0.1-0.3-0.2-0.6-0.2-1c0-1.1,0.8-2.1,2.5-2.9c1.7-0.9,3.5-1.3,5.7-1.3c2.2,0,4,0.5,5.2,1.5
				c1.3,1,1.9,2.3,1.9,4c0,2.3-1,4.3-3,6c-1,0.9-2.4,1.7-3.9,2.2c-1.6,0.6-3.1,0.9-4.5,0.9c-1.4,0-2.1-0.5-2.1-1.6
				c0-0.4,0.1-1.1,0.4-2.3l1.2-5.9c0.1-0.5,0.2-0.9,0.2-1.1c0-0.2-0.1-0.4-0.2-0.6c0.8-0.3,1.4-0.5,1.7-0.5c0.4,0,0.6,0.2,0.6,0.7
				c0,0.1-0.1,0.6-0.3,1.6l-1,5c-0.2,1.3-0.4,2.1-0.4,2.4c0,0.4,0.1,0.6,0.4,0.7c0.2,0.1,0.7,0.2,1.4,0.2c2.2,0,4-0.7,5.5-2
				c1.5-1.3,2.2-3,2.2-5c0-1.5-0.5-2.8-1.6-3.7c-1.1-0.9-2.5-1.4-4.3-1.4c-1.5,0-2.8,0.4-4.1,1.1C200.3,92.5,199.2,93.5,198.4,94.7z
				"/>
			<path class="st8" d="M218.6,96.6l-0.5,2.3c-0.2,1-0.3,1.7-0.3,2.1c0,0.8,0.8,1.2,2.3,1.2c1.5,0,2.9-0.3,4.1-0.8
				c-0.3,0.9-0.7,1.5-1.4,1.7c-0.4,0.1-1,0.3-2,0.4c-0.9,0.1-1.7,0.2-2.2,0.2c-2,0-3-0.7-3-2c0-0.4,0.1-1,0.3-2l0.6-3.1h-0.1
				c-0.6,0-1.2,0.1-1.8,0.4c0.3-0.7,0.6-1.1,0.8-1.3c0.2-0.2,0.6-0.3,1-0.3h0.3l0.9-4.5h-0.3c-1.1,0-2.2,0.4-3.1,1.1
				c0.3-1,0.7-1.6,1.2-1.9c0.4-0.2,1.7-0.3,3.8-0.3h2.7c1.7,0,3.1-0.2,4.2-0.5c-0.5,0.8-0.9,1.2-1.3,1.4c-0.4,0.2-1.2,0.2-2.4,0.2
				h-2.9l-0.9,4.5h1.9c1.3,0,2.4-0.2,3.1-0.5c-0.4,0.8-0.8,1.2-1.1,1.4c-0.3,0.2-1.1,0.2-2.3,0.2H218.6z"/>
		</g>
		<rect x="64" y="194.7" class="st9" width="209.8" height="15.8"/>
		<rect x="72.1" y="210.5" class="st3" width="193.9" height="8"/>
	</g>
	<g>
		<g>
			<rect x="162.9" y="130.4" class="st10" width="3.1" height="5.3"/>
		</g>
		<g>
			<path class="st11" d="M166.8,130.4h-4.7c-0.7,0-1.3-0.6-1.3-1.3V129c0-0.7,0.6-1.3,1.3-1.3h4.7c0.7,0,1.3,0.6,1.3,1.3v0.1
				C168.1,129.8,167.5,130.4,166.8,130.4z"/>
		</g>
		<g>
			<path class="st8" d="M163.9,128.2h-1.7c-0.3,0-0.5,0.2-0.5,0.5s0.2,0.5,0.5,0.5h1.7c0.3,0,0.5-0.2,0.5-0.5
				S164.1,128.2,163.9,128.2z"/>
		</g>
		<g>
			<path class="st12" d="M177.4,194.7h-26c-2.6,0-4.8-2-5-4.6l-3.6-34.4c-0.7-8.3,5.9-15.5,14.3-15.5h14.6c8.4,0,14.9,7.1,14.3,15.5
				l-3.6,34.4C182.2,192.7,180,194.7,177.4,194.7z"/>
		</g>
		<g>
			<g>
				<path class="st13" d="M152.5,190.8c-0.9,0-1.7-0.7-1.8-1.6l-3.5-33.4c-0.2-2.8,0.7-5.4,2.6-7.4c1.9-2.1,4.5-3.2,7.3-3.2
					c1,0,1.8,0.8,1.8,1.8c0,1-0.8,1.8-1.8,1.8c-1.8,0-3.4,0.7-4.6,2c-1.2,1.3-1.8,2.9-1.7,4.7l3.5,33.3c0.1,1-0.6,1.9-1.6,2
					C152.7,190.8,152.6,190.8,152.5,190.8z"/>
			</g>
		</g>
		<g class="st14">
			<path d="M171.7,140.2h-7.4c8.4,0,14.9,7.1,14.3,15.5l-3.6,34.4c-0.2,2.6-2.4,4.6-5,4.6h7.4c2.6,0,4.8-2,5-4.6l3.6-34.4
				C186.7,147.4,180.1,140.2,171.7,140.2z"/>
		</g>
		<g>
			<path class="st15" d="M177.9,136.9h-27v-0.1c0-1.4,1.1-2.5,2.5-2.5h21.9C176.8,134.3,177.9,135.4,177.9,136.9L177.9,136.9z"/>
		</g>
		<g class="st16">
			<path d="M175.3,134.3h-3.6c1.4,0,2.6,1.2,2.6,2.6h3.6C177.9,135.4,176.8,134.3,175.3,134.3z"/>
		</g>
		<g>
			<g>
				<rect x="159.9" y="173.6" class="st17" width="9" height="11"/>
			</g>
			<g class="st16">
				<rect x="164.4" y="173.6" width="4.5" height="11"/>
			</g>
			<g>
				<path class="st11" d="M166.6,179.9v8h-4.4v-8c0-0.7,0.3-1.3,0.8-1.7c0.2-0.2,0.5-0.3,0.7-0.4c0.2-0.1,0.4-0.1,0.7-0.1
					c0.6,0,1.2,0.2,1.6,0.6C166.4,178.7,166.6,179.3,166.6,179.9z"/>
			</g>
			<g>
				<path class="st8" d="M163.3,185.2c-0.2,0-0.3-0.1-0.3-0.3v-5.3c0-0.2,0.1-0.3,0.3-0.3c0.2,0,0.3,0.1,0.3,0.3v5.3
					C163.6,185.1,163.4,185.2,163.3,185.2z"/>
			</g>
			<g>
				<path class="st8" d="M163.3,187.2c-0.2,0-0.3-0.1-0.3-0.3V186c0-0.2,0.1-0.3,0.3-0.3c0.2,0,0.3,0.1,0.3,0.3v0.8
					C163.6,187.1,163.4,187.2,163.3,187.2z"/>
			</g>
			<g>
				<rect x="161" y="171.9" class="st11" width="6.9" height="1.7"/>
			</g>
			<g>
				<rect x="163.4" y="169.4" class="st10" width="2.1" height="2.6"/>
			</g>
			<g>
				<path class="st11" d="M166.8,167.2h-4.7c-0.6,0-1.1,0.5-1.1,1.1c0,0.6,0.5,1.1,1.1,1.1h4.7c0.6,0,1.1-0.5,1.1-1.1
					C167.9,167.7,167.4,167.2,166.8,167.2z"/>
			</g>
			<g class="st16">
				<path d="M166.8,167.2h-1.4c0.6,0,1.1,0.5,1.1,1.1c0,0.6-0.5,1.1-1.1,1.1h1.4c0.6,0,1.1-0.5,1.1-1.1
					C167.9,167.7,167.4,167.2,166.8,167.2z"/>
			</g>
			<g class="st14">
				<rect x="165.6" y="171.9" width="2.3" height="1.7"/>
			</g>
			<g>
				<rect x="161.8" y="171.9" class="st8" width="0.6" height="1.7"/>
			</g>
			<g class="st16">
				<path d="M166.6,179.9v8h-2.2v-10.2c0.6,0,1.2,0.2,1.6,0.6C166.4,178.7,166.6,179.3,166.6,179.9z"/>
			</g>
			<g>
				<path class="st8" d="M163.3,167.7H162c-0.2,0-0.3,0.1-0.3,0.3c0,0.2,0.1,0.3,0.3,0.3h1.3c0.2,0,0.3-0.1,0.3-0.3
					C163.6,167.9,163.5,167.7,163.3,167.7z"/>
			</g>
		</g>
		<g>
			<path class="st17" d="M179.2,142.3h-29.5v-3.6c0-1,0.8-1.8,1.8-1.8h26.4c0.7,0,1.3,0.6,1.3,1.3V142.3z"/>
		</g>
		<g class="st16">
			<path d="M178.5,136.9h-5.9c0.4,0,0.7,0.3,0.7,0.7v4.8h5.9v-4.8C179.2,137.2,178.9,136.9,178.5,136.9z"/>
		</g>
		<g>
			<path class="st8" d="M159.4,135.2h-5.8c-0.3,0-0.5,0.2-0.5,0.5c0,0.3,0.2,0.5,0.5,0.5h5.8c0.3,0,0.5-0.2,0.5-0.5
				C159.9,135.4,159.7,135.2,159.4,135.2z"/>
		</g>
	</g>
	<g>
		<rect x="209.5" y="130.4" class="st10" width="3.1" height="5.3"/>
		<path class="st11" d="M213.4,130.4h-4.7c-0.7,0-1.3-0.6-1.3-1.3V129c0-0.7,0.6-1.3,1.3-1.3h4.7c0.7,0,1.3,0.6,1.3,1.3v0.1
			C214.8,129.8,214.2,130.4,213.4,130.4z"/>
		<path class="st8" d="M210.5,128.2h-1.7c-0.3,0-0.5,0.2-0.5,0.5s0.2,0.5,0.5,0.5h1.7c0.3,0,0.5-0.2,0.5-0.5
			S210.8,128.2,210.5,128.2z"/>
		<path class="st18" d="M224.1,194.7h-26c-2.6,0-4.8-2-5-4.6l-3.6-34.4c-0.7-8.3,5.9-15.5,14.3-15.5h14.6c8.4,0,14.9,7.1,14.3,15.5
			l-3.6,34.4C228.9,192.7,226.7,194.7,224.1,194.7z"/>
		<g>
			<path class="st13" d="M199.2,190.8c-0.9,0-1.7-0.7-1.8-1.6l-3.5-33.4c-0.2-2.8,0.7-5.4,2.6-7.4c1.9-2.1,4.5-3.2,7.3-3.2
				c1,0,1.8,0.8,1.8,1.8c0,1-0.8,1.8-1.8,1.8c-1.8,0-3.4,0.7-4.6,2c-1.2,1.3-1.8,2.9-1.7,4.7l3.5,33.3c0.1,1-0.6,1.9-1.6,2
				C199.3,190.8,199.3,190.8,199.2,190.8z"/>
		</g>
		<path class="st14" d="M218.4,140.2H211c8.4,0,14.9,7.1,14.3,15.5l-3.6,34.4c-0.2,2.6-2.4,4.6-5,4.6h7.4c2.6,0,4.8-2,5-4.6
			l3.6-34.4C233.3,147.4,226.8,140.2,218.4,140.2z"/>
		<path class="st15" d="M224.6,136.9h-27v-0.1c0-1.4,1.1-2.5,2.5-2.5h21.9C223.4,134.3,224.6,135.4,224.6,136.9L224.6,136.9z"/>
		<path class="st16" d="M222,134.3h-3.6c1.4,0,2.6,1.2,2.6,2.6h3.6C224.6,135.4,223.4,134.3,222,134.3z"/>
		<g>
			<g>
				<rect x="206.6" y="173.6" class="st19" width="9" height="11"/>
			</g>
			<g class="st16">
				<rect x="211.1" y="173.6" width="4.5" height="11"/>
			</g>
			<g>
				<path class="st20" d="M213.3,179.9v8h-4.4v-8c0-0.7,0.3-1.3,0.8-1.7c0.2-0.2,0.5-0.3,0.7-0.4c0.2-0.1,0.4-0.1,0.7-0.1
					c0.6,0,1.2,0.2,1.6,0.6C213.1,178.7,213.3,179.3,213.3,179.9z"/>
			</g>
			<g>
				<path class="st8" d="M209.9,185.2c-0.2,0-0.3-0.1-0.3-0.3v-5.3c0-0.2,0.1-0.3,0.3-0.3c0.2,0,0.3,0.1,0.3,0.3v5.3
					C210.2,185.1,210.1,185.2,209.9,185.2z"/>
			</g>
			<g>
				<path class="st8" d="M209.9,187.2c-0.2,0-0.3-0.1-0.3-0.3V186c0-0.2,0.1-0.3,0.3-0.3c0.2,0,0.3,0.1,0.3,0.3v0.8
					C210.2,187.1,210.1,187.2,209.9,187.2z"/>
			</g>
			<g>
				<rect x="207.7" y="171.9" class="st20" width="6.9" height="1.7"/>
			</g>
			<g>
				<rect x="210.1" y="169.4" class="st21" width="2.1" height="2.6"/>
			</g>
			<g>
				<path class="st20" d="M213.5,167.2h-4.7c-0.6,0-1.1,0.5-1.1,1.1c0,0.6,0.5,1.1,1.1,1.1h4.7c0.6,0,1.1-0.5,1.1-1.1
					C214.5,167.7,214,167.2,213.5,167.2z"/>
			</g>
			<g class="st16">
				<path d="M213.5,167.2H212c0.6,0,1.1,0.5,1.1,1.1c0,0.6-0.5,1.1-1.1,1.1h1.4c0.6,0,1.1-0.5,1.1-1.1
					C214.5,167.7,214,167.2,213.5,167.2z"/>
			</g>
			<g class="st14">
				<rect x="212.2" y="171.9" width="2.3" height="1.7"/>
			</g>
			<g>
				<rect x="208.5" y="171.9" class="st8" width="0.6" height="1.7"/>
			</g>
			<g class="st16">
				<path d="M213.3,179.9v8h-2.2v-10.2c0.6,0,1.2,0.2,1.6,0.6C213.1,178.7,213.3,179.3,213.3,179.9z"/>
			</g>
			<g>
				<path class="st8" d="M209.9,167.7h-1.3c-0.2,0-0.3,0.1-0.3,0.3c0,0.2,0.1,0.3,0.3,0.3h1.3c0.2,0,0.3-0.1,0.3-0.3
					C210.2,167.9,210.1,167.7,209.9,167.7z"/>
			</g>
		</g>
		<path class="st17" d="M225.9,142.3h-29.5v-3.6c0-1,0.8-1.8,1.8-1.8h26.4c0.7,0,1.3,0.6,1.3,1.3V142.3z"/>
		<path class="st16" d="M225.2,136.9h-5.9c0.4,0,0.7,0.3,0.7,0.7v4.8h5.9v-4.8C225.9,137.2,225.6,136.9,225.2,136.9z"/>
		<path class="st8" d="M206.1,135.2h-5.8c-0.3,0-0.5,0.2-0.5,0.5c0,0.3,0.2,0.5,0.5,0.5h5.8c0.3,0,0.5-0.2,0.5-0.5
			C206.6,135.4,206.4,135.2,206.1,135.2z"/>
	</g>
	<g>
		<path class="st22" d="M134.9,159.7l-2.9,32.7c-0.1,1.3-1.2,2.3-2.5,2.3H117c-1.3,0-2.4-1-2.5-2.3l-2.9-32.7H134.9z"/>
		<polygon class="st23" points="125.7,159.7 119.9,190.5 117.6,190 123.3,159.7 		"/>
		<path class="st24" d="M141.5,142l-11,4.1c-1.5,0.6-2.6,1.9-2.9,3.5l-1.9,10h-2.4l2-10.4c0.4-2.4,2.1-4.4,4.4-5.3l11-4.1L141.5,142
			z"/>
		<path class="st12" d="M112.4,169.3l2.1,23.1c0.1,1.3,1.2,2.3,2.5,2.3h12.5c1.3,0,2.4-1,2.5-2.3l2.1-23.1H112.4z"/>
		<path class="st14" d="M129.7,159.7l-2.9,32.7c-0.1,1.3-1.2,2.3-2.5,2.3h5.2c1.3,0,2.4-1,2.5-2.3l2.9-32.7H129.7z"/>
		<g>
			<path class="st13" d="M118.5,191.8c-0.7,0-1.2-0.5-1.3-1.2l-2.4-26.7c-0.1-0.7,0.5-1.3,1.2-1.4c0.7-0.1,1.3,0.5,1.4,1.2l2.4,26.7
				c0.1,0.7-0.5,1.3-1.2,1.4C118.5,191.8,118.5,191.8,118.5,191.8z"/>
		</g>
	</g>
	<g>
		<g>
			<circle class="st12" cx="290.7" cy="290.9" r="14.9"/>
			<path class="st14" d="M290.7,275.9c-0.5,0-0.9,0-1.4,0.1c6.4,1.7,11.2,7.5,11.2,14.5c0,7.8-6,14.2-13.6,14.9
				c1.2,0.3,2.4,0.5,3.7,0.5c8.3,0,14.9-6.7,14.9-14.9C305.7,282.6,299,275.9,290.7,275.9z"/>
		</g>
		<g>
			<circle class="st12" cx="250.1" cy="294.4" r="14.9"/>
			<path class="st14" d="M250.1,279.5c-0.9,0-1.9,0.1-2.8,0.3c6.9,1.3,12.2,7.4,12.2,14.7c0,7.3-5.3,13.4-12.2,14.7
				c0.9,0.2,1.8,0.3,2.8,0.3c8.3,0,14.9-6.7,14.9-14.9C265,286.2,258.3,279.5,250.1,279.5z"/>
		</g>
		<g>
			<path class="st12" d="M264.4,270.4c-1.3-0.5-2.9-0.2-3.9,0.9c-1,1.1-1.3,2.7-0.7,4c-2.6,5.3-1,12.4,4.3,17.4
				c6.2,5.9,15.3,6.4,20.3,1.1c5-5.3,3.9-14.3-2.3-20.2C276.8,268.7,269.6,267.6,264.4,270.4z"/>
			<path class="st14" d="M282.1,273.6c-4.1-3.9-9.4-5.4-14-4.5c3.4,0.4,6.8,2,9.7,4.7c6.2,5.9,7.3,14.9,2.3,20.2
				c-1.7,1.8-3.9,2.9-6.3,3.4c4,0.5,7.9-0.7,10.6-3.5C289.4,288.6,288.3,279.5,282.1,273.6z"/>
		</g>
		<g>
			<g>
				<path class="st25" d="M312.4,290.6h-8.1c0-17.2-14-31.2-31.2-31.2s-31.2,14-31.2,31.2h-8.1c0-21.7,17.6-39.3,39.3-39.3
					S312.4,269,312.4,290.6z"/>
			</g>
			<g>
				<path class="st26" d="M232.7,299.4h16.1l3.3,43.3h-8.9c-2.9,0-5.3-2.1-5.7-5L232.7,299.4z"/>
				<polygon class="st25" points="248.9,299.4 265,299.4 266.1,342.7 252.2,342.7 				"/>
				<polygon class="st26" points="265,299.4 281.1,299.4 280,342.7 266.1,342.7 				"/>
				<polygon class="st25" points="281.1,299.4 297.3,299.4 294,342.7 280,342.7 				"/>
				<path class="st26" d="M297.3,299.4h16.1l-4.8,38.3c-0.4,2.9-2.8,5-5.7,5H294L297.3,299.4z"/>
			</g>
			<polygon class="st3" points="233.4,304.4 312.8,304.4 313.4,299.4 232.7,299.4 			"/>
			<path class="st3" d="M304,336.6h-61.9c-2.1,0-3.9-1-5-2.6l0.5,3.6c0.4,2.9,2.8,5,5.7,5h59.6c2.9,0,5.3-2.1,5.7-5l0.5-3.6
				C307.9,335.6,306.1,336.6,304,336.6z"/>
			<rect x="229.8" y="289.5" class="st27" width="86.5" height="9.9"/>
		</g>
		<circle class="st13" cx="273.6" cy="275.4" r="1.5"/>
		<path class="st13" d="M272.1,273.7c0,1.2-1,2.2-2.2,2.2c-1.2,0-2.2-1-2.2-2.2c0-1.2,1-2.2,2.2-2.2
			C271.1,271.4,272.1,272.4,272.1,273.7z"/>
		<circle class="st13" cx="290.7" cy="279.7" r="1.3"/>
		<path class="st13" d="M249.4,283.6c0,0.8-0.7,1.5-1.5,1.5c-0.8,0-1.5-0.7-1.5-1.5c0-0.8,0.7-1.5,1.5-1.5
			C248.7,282.1,249.4,282.8,249.4,283.6z"/>
	</g>
	<g>
		<g>
			<g>
				<path class="st9" d="M33.9,247.8V344h8v-10.5h53.7V344h8v-96.2H33.9z M41.9,325.5v-69.7h53.7v69.7H41.9z"/>
			</g>
			<g>
				<rect x="41.9" y="255.8" class="st1" width="53.7" height="69.7"/>
			</g>
		</g>
	</g>
</g>
</svg>
